<svg xmlns="http://www.w3.org/2000/svg" width="175.078" height="28" viewBox="0 0 175.078 28">
  <g id="HEADER" transform="translate(-99.98 -28)">
    <g id="Logo" transform="translate(-339.52 -138)">
      <path id="Soustraction_3" d="M606.9,194H523.2l-2.9-4.2-2.7-4a14.429,14.429,0,0,0,3.2-9.1,14.139,14.139,0,0,0-4.5-10.7h96.1a2.144,2.144,0,0,1,2.1,2.7l-4.4,22.7A3.647,3.647,0,0,1,606.9,194Zm-60-22.7h0l-1.9,9.6a11.022,11.022,0,0,0-.2,1.8,5.838,5.838,0,0,0,1.9,4.6A7.848,7.848,0,0,0,552,189c5,0,8.1-2.6,9.2-7.8l2-9.8h-4.8l-1.9,9.5c-.6,2.9-1.7,4.1-3.8,4.1-1.9,0-2.9-.9-2.9-2.7,0-.5.1-.9.1-1.4l1.9-9.5Zm-18.1,12.2h0l-1.9,3.7a14.11,14.11,0,0,0,7.2,1.9,10.278,10.278,0,0,0,6.1-1.7,5.587,5.587,0,0,0,2.3-4.5c0-3.2-3-4-5.5-4.6-1.6-.4-3-.8-3-1.7,0-.8.8-1.7,3.1-1.7a8.544,8.544,0,0,1,4.7,1.3l1.8-3.6a12.36,12.36,0,0,0-6.2-1.5,10.085,10.085,0,0,0-6.1,1.7,5.241,5.241,0,0,0-2.2,4.5c0,3.3,3.1,4.1,5.5,4.8,1.6.4,2.9.8,2.9,1.7,0,1-1.1,1.5-3,1.5a11.6,11.6,0,0,1-5.7-1.8Zm61.8-12.2h0l-3.5,17.3H601l.8-3.8h-9.1l.6-3.2H601l.7-3.7H594l.6-2.9h8.7l.8-3.8Zm-12.8,3.9-2.7,13.4H580l2.7-13.4H588l.8-3.9H573.3l-.8,3.9Zm-11.3-3.9h0L563,188.6h4.9l3.5-17.3Z" fill="#0c0058"/>
      <path id="Tracé_946" d="M503.5,186h-4v6.8h-7.3V167.2H504c7,0,11.4,3.6,11.4,9.5a8.611,8.611,0,0,1-5,8.1l5.5,8.1h-7.8Zm.1-13.1h-4v7.5h4c3,0,4.5-1.4,4.5-3.7,0-2.4-1.5-3.8-4.5-3.8Z" fill="#0c0058"/>
      <path id="Tracé_939" d="M474.5,172.9h-7.9v-5.8h23v5.8h-7.8v19.9h-7.3V172.9Z" fill="#0c0058"/>
      <path id="Tracé_938" d="M458,179.5h6.4v10.6a19.625,19.625,0,0,1-10.8,3.3c-8.2,0-14.1-5.5-14.1-13.3s6-13.3,14.3-13.3c4.8,0,8.7,1.6,11.2,4.7l-4.6,4.2a8.14,8.14,0,0,0-6.2-2.9,7.35,7.35,0,0,0-.1,14.7,10.065,10.065,0,0,0,3.9-.8v-7.2Z" fill="#0c0058"/>
    </g>
  </g>
</svg>
