<?xml version="1.0" encoding="utf-8"?>
<!-- Generator: Adobe Illustrator 24.3.0, SVG Export Plug-In . SVG Version: 6.00 Build 0)  -->
<svg version="1.1" id="Calque_1" xmlns="http://www.w3.org/2000/svg" xmlns:xlink="http://www.w3.org/1999/xlink" x="0px" y="0px"
	 viewBox="0 0 176 29" style="enable-background:new 0 0 176 29;" xml:space="preserve">
<style type="text/css">
	.st0{fill:#FFFFFF;}
</style>
<g id="HEADER" transform="translate(-99.5 -27.5)">
	<g id="Logo" transform="translate(-339.52 -138)">
		<path id="Soustraction_3" class="st0" d="M606.9,194h-83.7l-2.9-4.2l-2.7-4c2.1-2.6,3.2-5.8,3.2-9.1c0.1-4-1.5-7.9-4.5-10.7h96.1
			c0.7,0,1.3,0.3,1.7,0.8c0.4,0.5,0.6,1.2,0.4,1.9l-4.4,22.7C609.7,192.8,608.4,193.9,606.9,194z M546.9,171.3L546.9,171.3l-1.9,9.6
			c-0.1,0.6-0.2,1.2-0.2,1.8c-0.1,1.7,0.6,3.4,1.9,4.6c1.5,1.2,3.4,1.8,5.3,1.7c5,0,8.1-2.6,9.2-7.8l2-9.8h-4.8l-1.9,9.5
			c-0.6,2.9-1.7,4.1-3.8,4.1c-1.9,0-2.9-0.9-2.9-2.7c0-0.5,0.1-0.9,0.1-1.4l1.9-9.5L546.9,171.3z M528.8,183.5L528.8,183.5l-1.9,3.7
			c2.2,1.3,4.7,1.9,7.2,1.9c2.1,0.1,4.3-0.5,6.1-1.7c1.4-1,2.3-2.7,2.3-4.5c0-3.2-3-4-5.5-4.6c-1.6-0.4-3-0.8-3-1.7
			c0-0.8,0.8-1.7,3.1-1.7c1.7,0,3.3,0.4,4.7,1.3l1.8-3.6c-1.9-1-4.1-1.6-6.2-1.5c-2.2-0.1-4.3,0.5-6.1,1.7c-1.4,1-2.3,2.7-2.2,4.5
			c0,3.3,3.1,4.1,5.5,4.8c1.6,0.4,2.9,0.8,2.9,1.7c0,1-1.1,1.5-3,1.5C532.5,185.2,530.5,184.6,528.8,183.5L528.8,183.5z
			 M590.6,171.3L590.6,171.3l-3.5,17.3H601l0.8-3.8h-9.1l0.6-3.2h7.7l0.7-3.7h-7.7l0.6-2.9h8.7l0.8-3.8L590.6,171.3z M577.8,175.2
			l-2.7,13.4h4.9l2.7-13.4h5.3l0.8-3.9h-15.5l-0.8,3.9L577.8,175.2z M566.5,171.3L566.5,171.3l-3.5,17.3h4.9l3.5-17.3H566.5z"/>
		<path id="Tracé_946" class="st0" d="M503.5,186h-4v6.8h-7.3v-25.6H504c7,0,11.4,3.6,11.4,9.5c0.1,3.5-1.9,6.7-5,8.1l5.5,8.1h-7.8
			L503.5,186z M503.6,172.9h-4v7.5h4c3,0,4.5-1.4,4.5-3.7C508.1,174.3,506.6,172.9,503.6,172.9L503.6,172.9z"/>
		<path id="Tracé_939" class="st0" d="M474.5,172.9h-7.9v-5.8h23v5.8h-7.8v19.9h-7.3V172.9z"/>
		<path id="Tracé_938" class="st0" d="M458,179.5h6.4v10.6c-3.2,2.1-6.9,3.3-10.8,3.3c-8.2,0-14.1-5.5-14.1-13.3s6-13.3,14.3-13.3
			c4.8,0,8.7,1.6,11.2,4.7l-4.6,4.2c-1.5-1.8-3.8-2.9-6.2-2.9c-4,0-7.3,3.2-7.4,7.3c0,4,3.2,7.3,7.3,7.4c1.4,0,2.7-0.3,3.9-0.8
			V179.5z"/>
	</g>
</g>
</svg>
