<?xml version="1.0" standalone="no"?>
<!DOCTYPE svg PUBLIC "-//W3C//DTD SVG 20010904//EN"
 "http://www.w3.org/TR/2001/REC-SVG-20010904/DTD/svg10.dtd">
<svg version="1.0" xmlns="http://www.w3.org/2000/svg"
 width="700.000000pt" height="700.000000pt" viewBox="0 0 700.000000 700.000000"
 preserveAspectRatio="xMidYMid meet">
<metadata>
Created by potrace 1.14, written by Peter Selinger 2001-2017
</metadata>
<g transform="translate(0.000000,700.000000) scale(0.100000,-0.100000)"
fill="#000000" stroke="none">
<path d="M960 6980 c-252 -47 -448 -153 -632 -342 -169 -174 -278 -393 -318
-643 -11 -70 -9 -4976 2 -5015 4 -14 15 -56 24 -95 20 -83 83 -242 113 -283
12 -17 21 -33 21 -37 0 -18 104 -149 175 -220 156 -156 331 -256 540 -309 33
-8 74 -18 90 -23 17 -4 1142 -8 2500 -9 2490 -2 2478 -2 2635 29 48 10 156 49
225 82 337 162 579 482 649 860 13 70 15 393 13 2555 l-2 2475 -23 85 c-63
236 -157 406 -312 560 -81 81 -101 98 -170 146 -129 89 -302 159 -465 190 -22
5 -1149 9 -2505 10 -2335 2 -2470 1 -2560 -16z"/>
</g>
</svg>
